# xmcd
# 
# Track frame offsets:
#     182
#     17307
#     37920
#     62117
#     77755
#     104492
#     124870
#     143550
#     169892
#     185937
#     200980
#     223972
#     244442
#     254195
# 
# Disc length: 3855
# 
# Revision: 7
# Processed by: cddbd v1.5.2PL0 Copyright (c) Steve Scherf et al.
# Submitted via: fre:ac v1.0.17
# 
DISCID=dd0f0d0e
DTITLE=Various Artist - Blues Romances
DYEAR=1992
DGENRE=Blues
TTITLE0=Peter Green - In The Skies
TTITLE1=Alvin Lee - Real Life Blues
TTITLE2=Stevie Ray Vaughan - Texas Flood
TTITLE3=Albert King - Born Under A Bad Sign
TTITLE4=Blues Company - Silent Nite
TTITLE5=Albert Collins,Robert Cray,Johnny Copeland - Bring Your Fine Self Home
TTITLE6=Eric Burdon - Going Back To Memphis
TTITLE7=Stan Webb's Chicken Shak - Sweetest Little Thing
TTITLE8=Climax Blues Band - Couldn't Get It Right
TTITLE9=Robert Cray - When The Welfare Turns It's Back On You
TTITLE10=Peter Green - Slabo Day
TTITLE11=Stan Webb's Chicken Shack - I'd Rather Go Blind
TTITLE12=John Mayall - The Same Way
TTITLE13=Luther Allison - Freedom
EXTD=YEAR: 1992
EXTT0=
EXTT1=
EXTT2=
EXTT3=
EXTT4=
EXTT5=
EXTT6=
EXTT7=
EXTT8=
EXTT9=
EXTT10=
EXTT11=
EXTT12=
EXTT13=
PLAYORDER=
